<svg width="19" height="16" viewBox="0 0 19 16" fill="none" xmlns="http://www.w3.org/2000/svg">
<g clip-path="url(#clip0_1002_341)">
<path d="M1.54004 3.96973L1.10645 3.8584L1.32031 1.73438H3.50879V2.23535H1.78027L1.65137 3.39551C1.72949 3.35059 1.82812 3.30859 1.94727 3.26953C2.06836 3.23047 2.20703 3.21094 2.36328 3.21094C2.56055 3.21094 2.7373 3.24512 2.89355 3.31348C3.0498 3.37988 3.18262 3.47559 3.29199 3.60059C3.40332 3.72559 3.48828 3.87598 3.54688 4.05176C3.60547 4.22754 3.63477 4.42383 3.63477 4.64062C3.63477 4.8457 3.60645 5.03418 3.5498 5.20605C3.49512 5.37793 3.41211 5.52832 3.30078 5.65723C3.18945 5.78418 3.04883 5.88281 2.87891 5.95312C2.71094 6.02344 2.5127 6.05859 2.28418 6.05859C2.1123 6.05859 1.94922 6.03516 1.79492 5.98828C1.64258 5.93945 1.50586 5.86621 1.38477 5.76855C1.26562 5.66895 1.16797 5.5459 1.0918 5.39941C1.01758 5.25098 0.970703 5.07715 0.951172 4.87793H1.4668C1.49023 5.03809 1.53711 5.17285 1.60742 5.28223C1.67773 5.3916 1.76953 5.47461 1.88281 5.53125C1.99805 5.58594 2.13184 5.61328 2.28418 5.61328C2.41309 5.61328 2.52734 5.59082 2.62695 5.5459C2.72656 5.50098 2.81055 5.43652 2.87891 5.35254C2.94727 5.26855 2.99902 5.16699 3.03418 5.04785C3.07129 4.92871 3.08984 4.79492 3.08984 4.64648C3.08984 4.51172 3.07129 4.38672 3.03418 4.27148C2.99707 4.15625 2.94141 4.05566 2.86719 3.96973C2.79492 3.88379 2.70605 3.81738 2.60059 3.77051C2.49512 3.72168 2.37402 3.69727 2.2373 3.69727C2.05566 3.69727 1.91797 3.72168 1.82422 3.77051C1.73242 3.81934 1.6377 3.88574 1.54004 3.96973ZM7.52246 3.87598V5.4375C7.46973 5.51562 7.38574 5.60352 7.27051 5.70117C7.15527 5.79688 6.99609 5.88086 6.79297 5.95312C6.5918 6.02344 6.33203 6.05859 6.01367 6.05859C5.75391 6.05859 5.51465 6.01367 5.2959 5.92383C5.0791 5.83203 4.89062 5.69922 4.73047 5.52539C4.57227 5.34961 4.44922 5.13672 4.36133 4.88672C4.27539 4.63477 4.23242 4.34961 4.23242 4.03125V3.7002C4.23242 3.38184 4.26953 3.09766 4.34375 2.84766C4.41992 2.59766 4.53125 2.38574 4.67773 2.21191C4.82422 2.03613 5.00391 1.90332 5.2168 1.81348C5.42969 1.72168 5.67383 1.67578 5.94922 1.67578C6.27539 1.67578 6.54785 1.73242 6.7666 1.8457C6.9873 1.95703 7.15918 2.11133 7.28223 2.30859C7.40723 2.50586 7.4873 2.73047 7.52246 2.98242H6.95703C6.93164 2.82812 6.88086 2.6875 6.80469 2.56055C6.73047 2.43359 6.62402 2.33203 6.48535 2.25586C6.34668 2.17773 6.16797 2.13867 5.94922 2.13867C5.75195 2.13867 5.58105 2.1748 5.43652 2.24707C5.29199 2.31934 5.17285 2.42285 5.0791 2.55762C4.98535 2.69238 4.91504 2.85547 4.86816 3.04688C4.82324 3.23828 4.80078 3.4541 4.80078 3.69434V4.03125C4.80078 4.27734 4.8291 4.49707 4.88574 4.69043C4.94434 4.88379 5.02734 5.04883 5.13477 5.18555C5.24219 5.32031 5.37012 5.42285 5.51855 5.49316C5.66895 5.56348 5.83496 5.59863 6.0166 5.59863C6.21777 5.59863 6.38086 5.58203 6.50586 5.54883C6.63086 5.51367 6.72852 5.47266 6.79883 5.42578C6.86914 5.37695 6.92285 5.33105 6.95996 5.28809V4.33301H5.97266V3.87598H7.52246Z" fill="white"/>
<path d="M17 0C17.3978 0 17.7794 0.158035 18.0607 0.43934C18.342 0.720644 18.5 1.10218 18.5 1.5V16H15.5V1.5C15.5 1.10218 15.658 0.720644 15.9393 0.43934C16.2206 0.158035 16.6022 0 17 0V0Z" fill="white"/>
<path d="M12 4C12.3978 4 12.7794 4.15804 13.0607 4.43934C13.342 4.72064 13.5 5.10218 13.5 5.5V16H10.5V5.5C10.5 5.10218 10.658 4.72064 10.9393 4.43934C11.2206 4.15804 11.6022 4 12 4V4Z" fill="white"/>
<path d="M7 8C7.39782 8 7.77936 8.15804 8.06066 8.43934C8.34196 8.72064 8.5 9.10218 8.5 9.5V16H5.5V9.5C5.5 9.10218 5.65804 8.72064 5.93934 8.43934C6.22064 8.15804 6.60218 8 7 8V8Z" fill="white"/>
<path d="M2 12C2.39782 12 2.77936 12.158 3.06066 12.4393C3.34196 12.7206 3.5 13.1022 3.5 13.5V16H0.5V13.5C0.5 13.1022 0.658035 12.7206 0.93934 12.4393C1.22064 12.158 1.60218 12 2 12V12Z" fill="white"/>
</g>
<defs>
<clipPath id="clip0_1002_341">
<rect width="18" height="16" fill="white" transform="translate(0.5)"/>
</clipPath>
</defs>
</svg>
