<svg width="34" height="12" viewBox="0 0 34 12" fill="none" xmlns="http://www.w3.org/2000/svg">
<path d="M4.24316 11H2.58887V3.00879L0.148438 3.84277V2.44141L4.03125 1.0127H4.24316V11ZM14.4085 11H7.71615V9.8584L11.0316 6.24219C11.5101 5.70898 11.8496 5.26465 12.0501 4.90918C12.2552 4.54915 12.3577 4.18913 12.3577 3.8291C12.3577 3.35514 12.2233 2.97233 11.9544 2.68066C11.6901 2.389 11.3324 2.24316 10.8812 2.24316C10.3434 2.24316 9.92643 2.40723 9.63021 2.73535C9.33399 3.06348 9.18587 3.51237 9.18587 4.08203H7.52474C7.52474 3.47591 7.66146 2.93132 7.9349 2.44824C8.21289 1.96061 8.6071 1.58236 9.11752 1.31348C9.63249 1.0446 10.2249 0.910156 10.8949 0.910156C11.861 0.910156 12.6221 1.15397 13.1781 1.6416C13.7386 2.12467 14.0189 2.7946 14.0189 3.65137C14.0189 4.14811 13.8776 4.66992 13.5951 5.2168C13.3171 5.75911 12.8591 6.37663 12.221 7.06934L9.78744 9.67383H14.4085V11ZM16.7946 9.25C17.1045 9.25 17.3438 9.33887 17.5124 9.5166C17.681 9.68978 17.7653 9.90853 17.7653 10.1729C17.7653 10.4326 17.681 10.6491 17.5124 10.8223C17.3438 10.9909 17.1045 11.0752 16.7946 11.0752C16.4984 11.0752 16.2637 10.9909 16.0905 10.8223C15.9173 10.6536 15.8307 10.4372 15.8307 10.1729C15.8307 9.90853 15.915 9.68978 16.0837 9.5166C16.2523 9.33887 16.4893 9.25 16.7946 9.25ZM16.7946 3.44629C17.1045 3.44629 17.3438 3.53516 17.5124 3.71289C17.681 3.88607 17.7653 4.10482 17.7653 4.36914C17.7653 4.62891 17.681 4.84538 17.5124 5.01855C17.3438 5.18717 17.1045 5.27148 16.7946 5.27148C16.4984 5.27148 16.2637 5.18717 16.0905 5.01855C15.9173 4.84993 15.8307 4.63346 15.8307 4.36914C15.8307 4.10482 15.915 3.88607 16.0837 3.71289C16.2523 3.53516 16.4893 3.44629 16.7946 3.44629ZM21.3408 5.26465H22.3525C22.863 5.26009 23.2663 5.12793 23.5625 4.86816C23.8633 4.6084 24.0137 4.23242 24.0137 3.74023C24.0137 3.26628 23.8884 2.89941 23.6377 2.63965C23.3916 2.37533 23.0134 2.24316 22.5029 2.24316C22.0563 2.24316 21.6895 2.37305 21.4024 2.63281C21.1152 2.88802 20.9717 3.22298 20.9717 3.6377H19.3106C19.3106 3.12728 19.445 2.66243 19.7139 2.24316C19.9873 1.82389 20.3656 1.49805 20.8486 1.26562C21.3363 1.02865 21.8809 0.910156 22.4824 0.910156C23.4759 0.910156 24.2552 1.16081 24.8203 1.66211C25.39 2.15885 25.6748 2.85156 25.6748 3.74023C25.6748 4.18685 25.5313 4.6084 25.2441 5.00488C24.9616 5.39681 24.5947 5.69303 24.1436 5.89355C24.6904 6.0804 25.1052 6.37435 25.3877 6.77539C25.6748 7.17643 25.8184 7.65495 25.8184 8.21094C25.8184 9.10417 25.5107 9.8151 24.8955 10.3438C24.2848 10.8724 23.4805 11.1367 22.4824 11.1367C21.5254 11.1367 20.7415 10.8815 20.1309 10.3711C19.5202 9.86068 19.2149 9.18164 19.2149 8.33398H20.876C20.876 8.77148 21.0218 9.12695 21.3135 9.40039C21.6097 9.67383 22.0062 9.81055 22.5029 9.81055C23.0179 9.81055 23.4235 9.67383 23.7197 9.40039C24.016 9.12695 24.1641 8.73047 24.1641 8.21094C24.1641 7.68685 24.0091 7.28353 23.6992 7.00098C23.3893 6.71842 22.929 6.57715 22.3184 6.57715H21.3408V5.26465ZM33.8783 6.80957C33.8783 8.24056 33.6094 9.32064 33.0716 10.0498C32.5384 10.7744 31.7249 11.1367 30.6312 11.1367C29.5557 11.1367 28.7445 10.7835 28.1976 10.0771C27.6553 9.36621 27.3773 8.31576 27.3636 6.92578V5.20312C27.3636 3.77214 27.6302 2.69889 28.1634 1.9834C28.7012 1.2679 29.5192 0.910156 30.6175 0.910156C31.7067 0.910156 32.5179 1.25879 33.0511 1.95605C33.5889 2.65332 33.8646 3.69694 33.8783 5.08691V6.80957ZM32.2171 4.9502C32.2171 4.01595 32.0895 3.33236 31.8343 2.89941C31.5791 2.46191 31.1735 2.24316 30.6175 2.24316C30.0752 2.24316 29.6764 2.45052 29.4212 2.86523C29.166 3.27539 29.0316 3.91797 29.0179 4.79297V7.04883C29.0179 7.97852 29.1478 8.67122 29.4076 9.12695C29.6673 9.58268 30.0752 9.81055 30.6312 9.81055C31.1644 9.81055 31.5586 9.60091 31.8138 9.18164C32.069 8.75781 32.2035 8.09701 32.2171 7.19922V4.9502Z" fill="white" fill-opacity="0.9"/>
</svg>
