<svg width="18" height="15" viewBox="0 0 18 15" fill="none" xmlns="http://www.w3.org/2000/svg">
<path d="M8.95511 14.2428C8.64374 14.2428 8.33237 14.0994 8.1335 13.8128L7.75049 13.2608C7.29039 12.5976 7.76498 11.6907 8.5721 11.6907H9.33812C10.1452 11.6907 10.6198 12.5976 10.1597 13.2608L9.77672 13.8128C9.57785 14.0994 9.26648 14.2428 8.95511 14.2428Z" fill="white"/>
<path d="M11.446 9.71C11.1605 9.29914 10.7759 8.96698 10.3279 8.74428C9.87986 8.52158 9.38296 8.41554 8.88306 8.436C8.40131 8.40278 7.91969 8.50437 7.49243 8.72938C7.06518 8.9544 6.70899 9.29396 6.46387 9.71" stroke="white" stroke-width="2" stroke-linecap="round"/>
<path d="M13.9541 6.955C12.6125 5.57613 10.787 4.77318 8.86401 4.716C7.93089 4.73455 7.01138 4.94259 6.16113 5.32748C5.31089 5.71238 4.54762 6.2661 3.91797 6.955" stroke="white" stroke-width="2" stroke-linecap="round"/>
<path d="M16.5 4.2C14.402 2.28192 11.7036 1.15097 8.86499 1C6.09852 1.11824 3.47426 2.25845 1.5 4.2" stroke="white" stroke-width="2" stroke-linecap="round"/>
</svg>
